#define door_small_width 21
#define door_small_height 22
static char door_small_bits[] = {
 0xfe,0xff,0xe3,0xaa,0x1e,0xe2,0xf6,0x01,0xe2,0x2a,0x00,0xe2,0x36,0x00,0xe2,
 0x2a,0x00,0xe2,0x36,0x00,0xe2,0x2a,0x00,0xe2,0x2a,0x00,0xe2,0x36,0x00,0xe2,
 0x2a,0x00,0xe2,0x36,0x00,0xe2,0xaa,0x01,0xe2,0xb6,0x01,0xe2,0x2a,0x00,0xe2,
 0x2a,0x00,0xe2,0x36,0x00,0xe2,0x2a,0x00,0xe2,0x36,0x00,0xe2,0x2a,0x00,0xe2,
 0x3e,0xe0,0xe3,0x20,0x1e,0xe0};
