#define fax_width 22
#define fax_height 22
static char fax_bits[] = {
 0x00,0x00,0xc0,0xce,0x7f,0xc0,0x1a,0xc0,0xc0,0x32,0x40,0xc1,0x62,0x40,0xc3,
 0xc2,0x40,0xc5,0x82,0x41,0xc5,0x02,0x43,0xc5,0x02,0x46,0xc5,0x02,0x4e,0xc5,
 0xc2,0x43,0xc5,0xf2,0x40,0xc5,0x32,0x40,0xc5,0x62,0x40,0xc5,0xc2,0x40,0xc5,
 0x82,0x41,0xc5,0x02,0x43,0xc5,0xfe,0x56,0xc5,0x02,0x1c,0xc5,0xfc,0xdc,0xc5,
 0x08,0x1e,0xc4,0xf0,0xc0,0xc7};
