#define phone_width 22
#define phone_height 22
static char phone_bits[] = {
 0x00,0x00,0xc0,0x00,0x00,0xc0,0x80,0x7f,0xc0,0xe0,0xc0,0xc1,0x30,0x30,0xc3,
 0x18,0x78,0xc6,0x08,0xbc,0xc4,0x0c,0xde,0xcc,0x04,0x7f,0xc8,0x84,0x33,0xc8,
 0xc4,0x01,0xc8,0xc4,0x01,0xc8,0xe4,0x07,0xc8,0xe4,0x05,0xc8,0xec,0x06,0xcc,
 0xc8,0x03,0xc4,0x60,0x01,0xc6,0x60,0x00,0xc3,0xc0,0xc1,0xc1,0x00,0x7f,0xc0,
 0x00,0x00,0xc0,0x00,0x00,0xc0};
